<svg xmlns="http://www.w3.org/2000/svg" width="760" height="242" viewBox="0 0 760 242" font-family="system-ui, -apple-system, Segoe UI, Helvetica, Arial, sans-serif" role="img" aria-label="Frames per second. 400 animated elements: flatpak Brave 6, Brave from session-setup 60. Scrolling a long page: 60 and 60.">
<text x="0" y="22" font-size="17" font-weight="600" fill="#0b0b0b">Frames per second on the same test page</text>
<text x="0" y="44" font-size="13" fill="#52514e">Higher is smoother. 60 fps is the screen's limit.</text>
<rect x="0" y="60" width="12" height="12" rx="3" fill="#898781"/>
<text x="18" y="70.5" font-size="13" fill="#52514e">Flatpak Brave (CPU)</text>
<rect x="178.8" y="60" width="12" height="12" rx="3" fill="#2a78d6"/>
<text x="196.8" y="70.5" font-size="13" fill="#52514e">Brave from session-setup (GPU)</text>
<line x1="190.0" y1="86" x2="190.0" y2="206" stroke="#c3c2b7" stroke-width="1"/>
<text x="190.0" y="224" font-size="12" fill="#898781" text-anchor="middle">0</text>
<line x1="315.0" y1="86" x2="315.0" y2="206" stroke="#e1e0d9" stroke-width="1"/>
<text x="315.0" y="224" font-size="12" fill="#898781" text-anchor="middle">15</text>
<line x1="440.0" y1="86" x2="440.0" y2="206" stroke="#e1e0d9" stroke-width="1"/>
<text x="440.0" y="224" font-size="12" fill="#898781" text-anchor="middle">30</text>
<line x1="565.0" y1="86" x2="565.0" y2="206" stroke="#e1e0d9" stroke-width="1"/>
<text x="565.0" y="224" font-size="12" fill="#898781" text-anchor="middle">45</text>
<line x1="690.0" y1="86" x2="690.0" y2="206" stroke="#e1e0d9" stroke-width="1"/>
<text x="690.0" y="224" font-size="12" fill="#898781" text-anchor="middle">60</text>
<text x="176" y="117" font-size="13" fill="#0b0b0b" text-anchor="end">400 animated elements</text>
<path d="M190,92 h46.0 a4,4 0 0 1 4,4 v12 a4,4 0 0 1 -4,4 h-46.0 z" fill="#898781"/>
<text x="248.0" y="107" font-size="13" font-weight="600" fill="#0b0b0b">6 fps</text>
<path d="M190,114 h496.0 a4,4 0 0 1 4,4 v12 a4,4 0 0 1 -4,4 h-496.0 z" fill="#2a78d6"/>
<text x="698.0" y="129" font-size="13" font-weight="600" fill="#0b0b0b">60 fps</text>
<text x="176" y="185" font-size="13" fill="#0b0b0b" text-anchor="end">Scrolling a long page</text>
<path d="M190,160 h496.0 a4,4 0 0 1 4,4 v12 a4,4 0 0 1 -4,4 h-496.0 z" fill="#898781"/>
<text x="698.0" y="175" font-size="13" font-weight="600" fill="#0b0b0b">60 fps</text>
<path d="M190,182 h496.0 a4,4 0 0 1 4,4 v12 a4,4 0 0 1 -4,4 h-496.0 z" fill="#2a78d6"/>
<text x="698.0" y="197" font-size="13" font-weight="600" fill="#0b0b0b">60 fps</text>
</svg>
